<?xml version="1.0" encoding="UTF-8"?>
<svg width="200px" height="200px" viewBox="0 0 200 200" xmlns="http://www.w3.org/2000/svg" xmlns:xlink="http://www.w3.org/1999/xlink" version="1.1">
 <!-- Generated by Pixelmator Pro 2.1.2 -->
 <g id="layer1">
  <path id="path3882" d="M84.883 7.118 C64.002 9.903 45.668 20.704 33.074 36.348 L55.715 36.348 C63.015 23.154 72.973 12.383 84.885 8.234 85.556 7.992 89.054 6.589 84.884 7.118 Z M106.297 8.218 C118.064 12.297 127.927 22.839 135.208 35.799 135.537 36.363 135.572 36.347 136.273 36.347 L157.143 36.347 C157.776 36.35 157.838 36.008 157.681 35.764 145.091 20.422 126.935 9.849 106.291 7.111 103.197 6.811 104.05 7.503 106.298 8.218 Z M97.635 8.579 C97.113 8.579 96.684 9.015 96.684 9.559 L96.684 35.28 C96.712 36.02 97 36.324 97.759 36.348 L132.014 36.348 C132.916 36.34 132.521 35.564 132.445 35.304 125.774 23.741 116.6 13.781 103.775 9.659 101.833 9.035 99.802 8.726 97.755 8.589 97.71 8.582 97.683 8.579 97.635 8.579 Z M93.474 8.622 C77.566 9.988 65.919 22.747 58.19 36.347 L93.516 36.347 C94.269 36.32 94.509 35.967 94.543 35.244 L94.543 9.558 C94.543 9.026 94.129 8.622 93.607 8.622 Z M30.616 39.552 C24.643 47.786 20.219 57.199 17.713 67.376 17.395 68.405 17.783 68.454 18.559 68.454 L43.182 68.454 C44.317 68.449 44.106 68.151 44.261 67.402 46.252 57.997 49.572 48.339 54.038 39.537 54.914 38.354 54.226 38.475 53.885 38.488 L32 38.488 C31.252 38.474 30.999 39.031 30.616 39.552 Z M56.408 39.583 C55.615 41.107 54.873 42.628 54.177 44.14 50.691 51.543 48.053 59.365 46.402 67.366 46.087 68.558 46.357 68.434 46.934 68.454 L93.48 68.454 C94.323 68.439 94.572 68.28 94.544 67.376 L94.544 39.558 C94.526 38.865 94.19 38.49 93.481 38.488 L58.154 38.488 C57.042 38.483 56.848 38.746 56.408 39.583 Z M96.684 39.57 L96.684 67.396 C96.697 68.339 97.021 68.451 97.749 68.454 L144.506 68.454 C144.943 68.436 145.132 68.294 144.925 67.381 144.116 63.565 143.046 59.788 141.701 56.08 139.83 50.609 137.56 44.964 134.793 39.549 134.352 38.64 134.252 38.489 133.573 38.488 L97.771 38.488 C97.077 38.485 96.719 38.85 96.685 39.57 Z M137.203 39.561 C141.675 48.379 144.996 58.055 146.984 67.475 147.183 68.486 147.399 68.433 147.876 68.454 L173.112 68.454 C173.89 68.461 173.721 68.226 173.519 67.385 171.013 57.206 166.588 47.789 160.614 39.553 159.993 38.698 159.782 38.5 159.269 38.488 L137.365 38.488 C136.509 38.488 137.031 39.334 137.203 39.561 Z M16.75 71.648 C15.833 76.505 15.351 81.525 15.351 86.648 15.351 91.777 15.828 96.775 16.747 101.633 16.945 102.548 17.219 102.683 17.49 102.701 L43.184 102.701 C43.6 102.682 43.551 102.172 43.45 101.589 42.567 96.399 42.106 91.356 42.106 86.648 42.106 81.922 42.57 76.859 43.46 71.648 43.793 70.569 43.522 70.575 43.204 70.595 L17.49 70.595 C16.883 70.587 16.797 71.282 16.75 71.648 Z M45.643 71.648 C44.038 81.567 43.915 91.702 45.503 101.607 45.575 102.679 45.765 102.7 46.382 102.701 L93.501 102.701 C94.29 102.674 94.574 102.268 94.546 101.63 L94.546 71.665 C94.517 70.734 94.25 70.609 93.482 70.594 L46.4 70.594 C45.81 70.618 45.756 70.958 45.642 71.647 Z M96.688 71.685 L96.688 101.611 C96.725 102.305 96.991 102.77 97.791 102.701 L144.873 102.701 C145.599 102.669 145.459 102.253 145.562 101.634 147.177 91.708 147.286 81.584 145.695 71.667 145.538 70.759 145.413 70.597 144.873 70.595 L97.754 70.595 C96.856 70.587 96.693 70.885 96.688 71.685 Z M147.778 71.663 C148.665 76.869 149.128 81.927 149.128 86.647 149.128 91.362 148.666 96.413 147.781 101.61 147.435 102.674 147.658 102.689 148.051 102.7 L173.746 102.7 C174.351 102.689 174.361 102.284 174.484 101.651 175.405 96.786 175.884 91.782 175.884 86.647 175.884 81.524 175.402 76.502 174.484 71.644 174.15 70.317 174.094 70.59 173.746 70.594 L148.07 70.594 C147.519 70.592 147.671 71.05 147.778 71.663 Z M17.714 105.902 C20.23 116.107 24.678 125.57 30.677 133.819 31.214 134.468 31.458 134.582 32.487 134.807 L53.262 134.807 C54.218 134.843 54.386 134.746 54.04 133.751 49.576 124.952 46.258 115.299 44.267 105.898 44.118 104.989 43.851 104.861 43.225 104.842 L18.584 104.842 C17.776 104.856 17.487 104.955 17.714 105.902 Z M46.338 105.893 C47.144 109.71 48.195 113.477 49.534 117.182 51.415 122.658 53.689 128.292 56.454 133.704 56.882 134.449 56.991 134.497 57.903 134.807 L93.492 134.807 C94.309 134.873 94.575 134.634 94.55 133.658 L94.55 105.9 C94.521 105.384 94.418 104.905 93.486 104.841 L46.901 104.841 C46.17 104.866 46.194 105.196 46.338 105.893 Z M96.69 105.9 L96.69 133.729 C96.616 134.536 97.028 134.857 97.811 134.807 L133.042 134.807 C134.113 134.761 134.448 134.361 134.734 133.772 139.361 125.008 142.799 115.58 144.805 105.89 145.113 104.724 144.822 104.864 144.262 104.841 L97.754 104.841 C97.036 104.855 96.642 105.172 96.689 105.9 Z M146.972 105.897 C145 115.209 141.726 124.767 137.327 133.497 136.658 134.542 136.834 134.81 138.147 134.806 L158.78 134.806 C159.971 134.828 160.4 134.117 160.723 133.597 166.636 125.406 171.026 116.029 173.519 105.923 173.881 104.64 173.517 104.838 173.097 104.84 L147.824 104.84 C147.001 104.861 147.12 105.188 146.972 105.897 Z M34.043 138.087 C46.614 153.116 64.571 163.479 84.954 166.186 89.11 166.609 89.825 166.283 84.929 165.078 73.33 161.055 63.58 150.753 56.332 138.045 55.971 137.441 55.593 137.019 54.827 136.948 L34.694 136.948 C33.756 137.007 33.635 137.113 34.042 138.087 Z M58.795 138.011 C65.444 149.526 74.601 159.455 87.454 163.637 89.455 164.243 91.462 164.586 93.45 164.721 94.423 164.659 94.371 164.515 94.544 163.715 L94.544 138.049 C94.568 137.344 94.211 136.973 93.474 136.934 L59.254 136.948 C58.27 137.086 58.22 137.085 58.794 138.011 Z M96.684 138.013 L96.684 163.714 C96.651 164.612 96.881 164.764 97.804 164.699 110.494 163.6 122.148 154.094 128.991 143.402 130.112 141.734 131.168 140.034 132.186 138.302 132.557 137.702 132.764 137.013 131.181 136.948 L97.77 136.948 C97.102 136.909 96.687 137.196 96.685 138.013 Z M134.925 137.995 C127.67 150.733 117.904 161.06 106.281 165.084 103.663 165.781 100.793 166.878 106.302 166.183 126.381 163.509 144.102 153.406 156.639 138.734 157.634 137.38 157.667 136.984 156.632 136.948 L136.856 136.948 C135.496 137.025 135.244 137.361 134.925 137.996 Z" fill="#838383" fill-opacity="1" stroke="none"/>
  <path id="path4024" d="M169.687 50.633 C170.719 52.904 171.632 55.198 172.563 57.455 172.565 57.46 172.595 57.451 172.596 57.455 176.873 57.905 180.957 58.935 184.168 61.736 185.425 65.668 180.82 69.583 178.014 72.104 147.141 94.23 109.739 105.652 72.598 112.538 52.153 115.354 30.721 120.332 10.592 113.575 7.11 113.515 5.207 110.107 7.381 107.287 9.629 104.945 11.979 102.783 14.438 100.732 13.743 98.277 13.465 95.657 13.368 93.006 3.594 100.159 -1.438 107.019 0.056 112.538 3.92 126.801 49.824 126.766 102.596 112.471 155.367 98.175 195.019 75.028 191.156 60.767 189.656 55.231 181.799 51.862 169.685 50.633 Z" fill="#4d4d4d" fill-opacity="1" stroke="none"/>
  <g id="g4192">
   <path id="path2839" d="M158.709 50.223 C170.346 70.378 163.441 96.149 143.286 107.785 123.131 119.422 97.36 112.516 85.723 92.362 74.087 72.207 80.992 46.436 101.147 34.799 121.302 23.163 147.073 30.068 158.709 50.223 Z" fill="#cccccc" fill-opacity="1" stroke="none"/>
   <path id="path2841" d="M97.405 28.319 C73.679 42.017 65.541 72.389 79.239 96.115 91.403 117.184 116.713 125.955 138.844 118.063 140.586 121.426 175.535 188.927 175.591 189.026 177.303 191.991 183.594 191.568 189.641 188.077 195.688 184.586 199.199 179.35 197.487 176.384 L154.405 109.08 C172.304 93.859 177.364 67.554 165.2 46.485 151.502 22.759 121.129 14.621 97.404 28.319 Z M101.15 34.807 C121.295 23.177 147.083 30.086 158.713 50.23 170.343 70.375 163.433 96.163 143.289 107.793 123.145 119.423 97.356 112.513 85.726 92.369 74.096 72.225 81.006 46.437 101.15 34.807 Z" fill="#000000" fill-opacity="1" stroke="none"/>
   <path id="path2854" d="M101.15 34.804 C82.808 45.395 75.45 67.693 83.059 86.81 90.225 86.82 97.497 85.031 104.145 81.192 122.487 70.602 129.83 48.278 122.221 29.161 115.055 29.151 107.799 30.966 101.15 34.804 Z" fill="#f2f2f2" fill-opacity="1" stroke="none"/>
  </g>
 </g>
</svg>
